# xmcd
#
# Track frame offsets: 
#        150
#        13842
#        44744
#        61944
#        80077
#        102182
#        126957
#        154421
#        173773
#        185412
#        207571
#
# Disc length: 3161 seconds
#
# Revision: 0
# Processed by: cddbd v1.5.2PL0 Copyright (c) Steve Scherf et al.
# Submitted via: ExactAudioCopy v1.1
#
DISCID=9e0c570b
DTITLE=CeDell Davis - When Lightin' Struck the Pine
DYEAR=2002
DGENRE=Delta Blues
TTITLE0=Pay To Play
TTITLE1=Come On And Ride With Me
TTITLE2=Woke Up This Morning
TTITLE3=So Long, I Hate To See You Go
TTITLE4=Give Me That Look
TTITLE5=Love Me A Little While
TTITLE6=Cold Chills
TTITLE7=One Of These Days
TTITLE8=Propaganda
TTITLE9=Rub Me Baby
TTITLE10=Hold Me Baby
EXTD=
EXTT0=
EXTT1=
EXTT2=
EXTT3=
EXTT4=
EXTT5=
EXTT6=
EXTT7=
EXTT8=
EXTT9=
EXTT10=
PLAYORDER=
